<?xml version="1.0" encoding="iso-8859-1"?>
<!-- Generator: Adobe Illustrator 21.0.0, SVG Export Plug-In . SVG Version: 6.00 Build 0)  -->
<svg xmlns="http://www.w3.org/2000/svg" xmlns:xlink="http://www.w3.org/1999/xlink" version="1.1" id="Capa_1" x="0px" y="0px" viewBox="0 0 512.001 512.001" style="enable-background:new 0 0 512.001 512.001;" xml:space="preserve" width="512" height="512">
<rect x="10" y="171.984" style="fill-rule:evenodd;clip-rule:evenodd;fill:#D1D6DE;" width="492.001" height="232.558"/>
<rect x="10" y="107.46" style="fill-rule:evenodd;clip-rule:evenodd;fill:#A6AFBE;" width="492.001" height="64.524"/>
<rect x="173.328" y="216.344" style="fill-rule:evenodd;clip-rule:evenodd;fill:#A6AFBE;" width="165.346" height="143.837"/>
<rect x="54.361" y="216.344" style="fill-rule:evenodd;clip-rule:evenodd;fill:#9DC8F5;" width="118.967" height="143.837"/>
<rect x="338.674" y="216.344" style="fill-rule:evenodd;clip-rule:evenodd;fill:#9DC8F5;" width="118.967" height="143.837"/>
<path style="fill-rule:evenodd;clip-rule:evenodd;fill:#6FA9EC;" d="M173.328,325.566c-20.602,0-37.303-16.701-37.303-37.303  c0-20.603,16.701-37.304,37.303-37.304V325.566z"/>
<path style="fill-rule:evenodd;clip-rule:evenodd;fill:#6FA9EC;" d="M338.674,336.404c26.588,0,48.142-21.553,48.142-48.142  c0-26.588-21.554-48.142-48.142-48.142V336.404z"/>
<g>
	<path style="fill-rule:evenodd;clip-rule:evenodd;" d="M502.001,97.46H10c-5.522,0-10,4.477-10,10v64.524v232.558   c0,5.522,4.478,10,10,10h492.001c5.522,0,10-4.478,10-10V171.984V107.46C512.001,101.937,507.523,97.46,502.001,97.46z M20,117.46   h472.001v44.524H20V117.46z M492.001,394.542H20V181.984h472.001V394.542z"/>
	<path style="fill-rule:evenodd;clip-rule:evenodd;" d="M54.361,330.181c5.522,0,10-4.478,10-10v-93.837h98.967v15.688   c-21.295,4.603-37.303,23.578-37.303,46.231c0,22.652,16.008,41.627,37.303,46.229v15.689H94.361c-5.522,0-10,4.477-10,10   c0,5.522,4.478,10,10,10h78.967h165.346h118.967c5.522,0,10-4.478,10-10V256.344c0-5.523-4.478-10-10-10c-5.522,0-10,4.477-10,10   v93.837h-98.967v-4.655c27.309-4.757,48.142-28.615,48.142-57.264c0-28.648-20.833-52.507-48.142-57.264v-4.654h68.967   c5.522,0,10-4.478,10-10c0-5.523-4.478-10-10-10h-78.967H173.328H54.361c-5.522,0-10,4.477-10,10v103.837   C44.361,325.704,48.839,330.181,54.361,330.181z M146.025,288.263c0-11.527,7.18-21.409,17.303-25.407v50.813   C153.205,309.671,146.025,299.79,146.025,288.263z M376.815,288.262c0,17.572-11.945,32.407-28.142,36.811v-73.623   C364.87,255.855,376.815,270.69,376.815,288.262z M328.674,240.121v96.283v13.777H183.328v-24.615V250.96v-24.615h145.346V240.121z   "/>
	<path style="fill-rule:evenodd;clip-rule:evenodd;" d="M54.361,370.181c5.508,0,10-4.492,10-10c0-5.508-4.492-10-10-10   s-10,4.492-10,10C44.361,365.689,48.854,370.181,54.361,370.181z"/>
	<path style="fill-rule:evenodd;clip-rule:evenodd;" d="M457.641,226.344c5.508,0,10-4.492,10-10c0-5.508-4.492-10-10-10   c-5.508,0-10,4.492-10,10C447.641,221.852,452.133,226.344,457.641,226.344z"/>
</g>















</svg>
